#N canvas 734 91 479 368 12;
#X obj 78 47 osc~ 330;
#X obj 103 85 osc~ 330.2;
#X obj 78 128 +~;
#X obj 196 128 +~;
#X obj 331 122 +~;
#X obj 196 47 osc~ 440;
#X obj 221 85 osc~ 440.33;
#X obj 331 41 osc~ 550;
#X obj 356 79 osc~ 550.25;
#X obj 79 174 +~;
#X obj 77 222 +~;
#X obj 79 264 *~ 0.05;
#X obj 78 309 dac~;
#X connect 0 0 2 0;
#X connect 1 0 2 1;
#X connect 2 0 9 0;
#X connect 3 0 9 1;
#X connect 4 0 10 1;
#X connect 5 0 3 0;
#X connect 6 0 3 1;
#X connect 7 0 4 0;
#X connect 8 0 4 1;
#X connect 9 0 10 0;
#X connect 10 0 11 0;
#X connect 11 0 12 0;
