#N canvas 866 124 587 527 12;
#X floatatom 149 43 5 0 0 0 - - - 0;
#X obj 149 84 mtof;
#X obj 181 129 * 2;
#X obj 235 130 * 3;
#X obj 293 130 * 4;
#X obj 186 171 osc~;
#X obj 139 171 osc~;
#X obj 239 170 osc~;
#X obj 293 168 osc~;
#X obj 182 213 *~ 0.1;
#X obj 239 213 *~ 0.2;
#X obj 296 213 *~ 0.5;
#X obj 185 259 +~;
#X obj 184 304 +~;
#X obj 141 348 +~;
#X obj 138 397 *~ 0.05;
#X obj 136 440 dac~;
#X obj 188 345 *~;
#X obj 236 345 tgl 19 0 empty empty empty 0 -10 0 12 #fcfcfc #000000 #000000 0 1;
#X connect 0 0 1 0;
#X connect 1 0 2 0;
#X connect 1 0 3 0;
#X connect 1 0 4 0;
#X connect 1 0 6 0;
#X connect 2 0 5 0;
#X connect 3 0 7 0;
#X connect 4 0 8 0;
#X connect 6 0 14 0;
#X connect 9 0 12 0;
#X connect 10 0 12 1;
#X connect 11 0 13 1;
#X connect 12 0 13 0;
#X connect 13 0 17 0;
#X connect 14 0 15 0;
#X connect 15 0 16 0;
#X connect 17 0 14 1;
#X connect 18 0 17 1;
