#N canvas 668 127 450 381 12;
#X obj 128 39 osc~ 440;
#X obj 154 73 osc~ 550;
#X obj 128 107 +~;
#X obj 155 140 osc~ 660;
#X obj 127 177 +~;
#X obj 126 225 *~ 0.05;
#X obj 127 270 dac~;
#X connect 0 0 2 0;
#X connect 1 0 2 1;
#X connect 2 0 4 0;
#X connect 3 0 4 1;
#X connect 4 0 5 0;
#X connect 5 0 6 0;
